{
  "source": "C:\\Users\\Peter\\Desktop\\stuff\\MIUN\\quantitative_research\\video_compression\\videos\\BVI-HD\\BVI-HD_CDVL_videos\\ORIG\\PaintingTilting_1920x1080_60fps.mp4",
  "output": "C:\\Users\\Peter\\Desktop\\stuff\\MIUN\\quantitative_research\\video_compression\\compressed_videos\\BVI-HD\\vp9\\8\\PaintingTilting_1920x1080_60fps_vp9.webm",
  "codec": "vp9",
  "ok": "Input #0, mov,mp4,m4a,3gp,3g2,mj2, from 'C:\\Users\\Peter\\Desktop\\stuff\\MIUN\\quantitative_research\\video_compression\\videos\\BVI-HD\\BVI-HD_CDVL_videos\\ORIG\\PaintingTilting_1920x1080_60fps.mp4':\n  Metadata:\n    major_brand     : isom\n    minor_version   : 512\n    compatible_brands: isomiso2avc1mp41\n    encoder         : Lavf54.28.101\n  Duration: 00:00:05.00, start: 0.000000, bitrate: 667707 kb/s\n  Stream #0:0[0x1](und): Video: h264 (High 4:4:4 Predictive) (avc1 / 0x31637661), yuv420p(progressive), 1920x1080, 667702 kb/s, 60 fps, 60 tbr, 60 tbn (default)\n    Metadata:\n      handler_name    : VideoHandler\n      vendor_id       : [0][0][0][0]\n[out#0/webm @ 0000023fe74f9180] Codec AVOption b:a (set bitrate (in bits/s)) has not been used for any stream. The most likely reason is either wrong type (e.g. a video option with no video streams) or that it is a private option of some decoder which was not actually used for any stream.\nStream mapping:\n  Stream #0:0 -> #0:0 (h264 (native) -> vp9 (libvpx-vp9))\nPress [q] to stop, [?] for help\n[libvpx-vp9 @ 0000023fe81800c0] v1.15.2-100-g40561f514\nOutput #0, webm, to 'C:\\Users\\Peter\\Desktop\\stuff\\MIUN\\quantitative_research\\video_compression\\compressed_videos\\BVI-HD\\vp9\\8\\PaintingTilting_1920x1080_60fps_vp9.webm':\n  Metadata:\n    major_brand     : isom\n    minor_version   : 512\n    compatible_brands: isomiso2avc1mp41\n    encoder         : Lavf62.3.100\n  Stream #0:0(und): Video: vp9, yuv420p(tv, progressive), 1920x1080, q=2-31, 8000 kb/s, 60 fps, 1k tbn (default)\n    Metadata:\n      encoder         : Lavc62.11.100 libvpx-vp9\n      handler_name    : VideoHandler\n      vendor_id       : [0][0][0][0]\n    Side data:\n      cpb: bitrate max/min/avg: 0/0/0 buffer size: 8000000 vbv_delay: N/A\nframe=    0 fps=0.0 q=0.0 size=       0KiB time=N/A bitrate=N/A speed=N/A elapsed=0:00:01.12    \nframe=    2 fps=1.1 q=23.0 size=       1KiB time=00:00:00.03 bitrate= 151.9kbits/s speed=0.0188x elapsed=0:00:01.77    \nframe=    5 fps=2.2 q=29.0 size=       1KiB time=00:00:00.08 bitrate=  60.8kbits/s speed=0.036x elapsed=0:00:02.31    \nframe=    7 fps=2.4 q=33.0 size=       1KiB time=00:00:00.11 bitrate=  43.4kbits/s speed=0.0403x elapsed=0:00:02.89    \nframe=   10 fps=2.9 q=32.0 size=       1KiB time=00:00:00.16 bitrate=  30.4kbits/s speed=0.0486x elapsed=0:00:03.42    \nframe=   12 fps=3.0 q=32.0 size=       1KiB time=00:00:00.20 bitrate=  25.3kbits/s speed=0.0501x elapsed=0:00:03.99    \nframe=   14 fps=3.1 q=32.0 size=       1KiB time=00:00:00.23 bitrate=  21.7kbits/s speed=0.0514x elapsed=0:00:04.53    \nframe=   16 fps=3.2 q=31.0 size=       1KiB time=00:00:00.26 bitrate=  19.0kbits/s speed=0.0526x elapsed=0:00:05.07    \nframe=   18 fps=3.2 q=31.0 size=       1KiB time=00:00:00.30 bitrate=  16.9kbits/s speed=0.0533x elapsed=0:00:05.62    \nframe=   20 fps=3.2 q=31.0 size=       1KiB time=00:00:00.33 bitrate=  15.2kbits/s speed=0.0538x elapsed=0:00:06.19    \nframe=   21 fps=3.1 q=31.0 size=       1KiB time=00:00:00.35 bitrate=  14.5kbits/s speed=0.0519x elapsed=0:00:06.74    \nframe=   24 fps=3.3 q=31.0 size=       1KiB time=00:00:00.40 bitrate=  12.7kbits/s speed=0.055x elapsed=0:00:07.27    \nframe=   25 fps=3.2 q=22.0 size=       1KiB time=00:00:00.41 bitrate=  12.2kbits/s speed=0.0534x elapsed=0:00:07.79    \nframe=   27 fps=3.2 q=31.0 size=       1KiB time=00:00:00.45 bitrate=  11.3kbits/s speed=0.0541x elapsed=0:00:08.31    \nframe=   29 fps=3.3 q=30.0 size=       1KiB time=00:00:00.48 bitrate=  10.5kbits/s speed=0.0547x elapsed=0:00:08.83    \nframe=   32 fps=3.4 q=31.0 size=       1KiB time=00:00:00.51 bitrate=   9.8kbits/s speed=0.0553x elapsed=0:00:09.34    \nframe=   34 fps=3.4 q=31.0 size=       1KiB time=00:00:00.56 bitrate=   8.9kbits/s speed=0.0572x elapsed=0:00:09.90    \nframe=   37 fps=3.5 q=23.0 size=       1KiB time=00:00:00.61 bitrate=   8.2kbits/s speed=0.0591x elapsed=0:00:10.44    \nframe=   39 fps=3.6 q=31.0 size=       1KiB time=00:00:00.65 bitrate=   7.8kbits/s speed=0.0592x elapsed=0:00:10.97    \nframe=   42 fps=3.6 q=31.0 size=       1KiB time=00:00:00.70 bitrate=   7.2kbits/s speed=0.0607x elapsed=0:00:11.53    \nframe=   44 fps=3.6 q=31.0 size=       1KiB time=00:00:00.73 bitrate=   6.9kbits/s speed=0.0605x elapsed=0:00:12.12    \nframe=   45 fps=3.5 q=31.0 size=       1KiB time=00:00:00.75 bitrate=   6.8kbits/s speed=0.0587x elapsed=0:00:12.77    \nframe=   47 fps=3.5 q=31.0 size=       1KiB time=00:00:00.78 bitrate=   6.5kbits/s speed=0.0586x elapsed=0:00:13.37    \nframe=   48 fps=3.4 q=31.0 size=       1KiB time=00:00:00.80 bitrate=   6.3kbits/s speed=0.0568x elapsed=0:00:14.07    \nframe=   50 fps=3.4 q=31.0 size=       1KiB time=00:00:00.83 bitrate=   6.1kbits/s speed=0.0568x elapsed=0:00:14.67    \nframe=   52 fps=3.4 q=30.0 size=       1KiB time=00:00:00.86 bitrate=   5.8kbits/s speed=0.0568x elapsed=0:00:15.27    \nframe=   54 fps=3.4 q=31.0 size=       1KiB time=00:00:00.90 bitrate=   5.6kbits/s speed=0.0568x elapsed=0:00:15.84    \nframe=   57 fps=3.5 q=31.0 size=       1KiB time=00:00:00.95 bitrate=   5.3kbits/s speed=0.058x elapsed=0:00:16.37    \nframe=   59 fps=3.5 q=31.0 size=       1KiB time=00:00:00.98 bitrate=   5.1kbits/s speed=0.0581x elapsed=0:00:16.92    \nframe=   60 fps=3.4 q=31.0 size=       1KiB time=00:00:01.00 bitrate=   5.1kbits/s speed=0.0572x elapsed=0:00:17.46    \nframe=   62 fps=3.4 q=31.0 size=       1KiB time=00:00:01.03 bitrate=   4.9kbits/s speed=0.0574x elapsed=0:00:18.00    \nframe=   64 fps=3.4 q=31.0 size=       1KiB time=00:00:01.06 bitrate=   4.7kbits/s speed=0.0574x elapsed=0:00:18.57    \nframe=   66 fps=3.4 q=31.0 size=       1KiB time=00:00:01.10 bitrate=   4.6kbits/s speed=0.0574x elapsed=0:00:19.16    \nframe=   67 fps=3.4 q=31.0 size=       1KiB time=00:00:01.11 bitrate=   4.5kbits/s speed=0.0567x elapsed=0:00:19.69    \nframe=   69 fps=3.4 q=31.0 size=       1KiB time=00:00:01.15 bitrate=   4.4kbits/s speed=0.0568x elapsed=0:00:20.23    \nframe=   70 fps=3.4 q=32.0 size=       1KiB time=00:00:01.16 bitrate=   4.3kbits/s speed=0.0561x elapsed=0:00:20.79    \nframe=   72 fps=3.4 q=32.0 size=       1KiB time=00:00:01.20 bitrate=   4.2kbits/s speed=0.0562x elapsed=0:00:21.35    \nframe=   74 fps=3.4 q=32.0 size=       1KiB time=00:00:01.23 bitrate=   4.1kbits/s speed=0.0564x elapsed=0:00:21.88    \nframe=   75 fps=3.3 q=30.0 size=       1KiB time=00:00:01.25 bitrate=   4.1kbits/s speed=0.0556x elapsed=0:00:22.47    \nframe=   77 fps=3.3 q=30.0 size=       1KiB time=00:00:01.28 bitrate=   3.9kbits/s speed=0.0556x elapsed=0:00:23.07    \nframe=   79 fps=3.3 q=31.0 size=       1KiB time=00:00:01.31 bitrate=   3.8kbits/s speed=0.0557x elapsed=0:00:23.65    \nframe=   80 fps=3.3 q=30.0 size=       1KiB time=00:00:01.33 bitrate=   3.8kbits/s speed=0.0551x elapsed=0:00:24.20    \nframe=   82 fps=3.3 q=31.0 size=       1KiB time=00:00:01.36 bitrate=   3.7kbits/s speed=0.0552x elapsed=0:00:24.74    \nframe=   84 fps=3.3 q=31.0 size=       1KiB time=00:00:01.40 bitrate=   3.6kbits/s speed=0.0553x elapsed=0:00:25.30    \nframe=   86 fps=3.3 q=31.0 size=       1KiB time=00:00:01.41 bitrate=   3.6kbits/s speed=0.0548x elapsed=0:00:25.87    \nframe=   87 fps=3.3 q=30.0 size=       1KiB time=00:00:01.45 bitrate=   3.5kbits/s speed=0.0549x elapsed=0:00:26.42    \nframe=   89 fps=3.3 q=31.0 size=       1KiB time=00:00:01.48 bitrate=   3.4kbits/s speed=0.055x elapsed=0:00:26.95    \nframe=   91 fps=3.3 q=31.0 size=       1KiB time=00:00:01.51 bitrate=   3.3kbits/s speed=0.0551x elapsed=0:00:27.53    \nframe=   92 fps=3.3 q=31.0 size=       1KiB time=00:00:01.53 bitrate=   3.3kbits/s speed=0.0546x elapsed=0:00:28.06    \nframe=   94 fps=3.3 q=31.0 size=       1KiB time=00:00:01.56 bitrate=   3.2kbits/s speed=0.0548x elapsed=0:00:28.59    \nframe=   96 fps=3.3 q=31.0 size=       1KiB time=00:00:01.60 bitrate=   3.2kbits/s speed=0.0549x elapsed=0:00:29.15    \nframe=   98 fps=3.3 q=32.0 size=       1KiB time=00:00:01.63 bitrate=   3.1kbits/s speed=0.055x elapsed=0:00:29.70    \nframe=   99 fps=3.3 q=30.0 size=       1KiB time=00:00:01.65 bitrate=   3.1kbits/s speed=0.0545x elapsed=0:00:30.25    \nframe=  100 fps=3.2 q=31.0 size=       1KiB time=00:00:01.66 bitrate=   3.0kbits/s speed=0.0541x elapsed=0:00:30.78    \nframe=  102 fps=3.3 q=31.0 size=       1KiB time=00:00:01.70 bitrate=   3.0kbits/s speed=0.0543x elapsed=0:00:31.32    \nframe=  104 fps=3.3 q=31.0 size=       1KiB time=00:00:01.73 bitrate=   2.9kbits/s speed=0.0544x elapsed=0:00:31.87    \nframe=  105 fps=3.2 q=31.0 size=       1KiB time=00:00:01.75 bitrate=   2.9kbits/s speed=0.054x elapsed=0:00:32.40    \nframe=  106 fps=3.2 q=31.0 size=       1KiB time=00:00:01.76 bitrate=   2.9kbits/s speed=0.0537x elapsed=0:00:32.92    \nframe=  108 fps=3.2 q=31.0 size=       1KiB time=00:00:01.80 bitrate=   2.8kbits/s speed=0.0538x elapsed=0:00:33.45    \nframe=  110 fps=3.2 q=32.0 size=       1KiB time=00:00:01.83 bitrate=   2.8kbits/s speed=0.0539x elapsed=0:00:34.01    \nframe=  111 fps=3.2 q=29.0 size=       1KiB time=00:00:01.85 bitrate=   2.7kbits/s speed=0.0535x elapsed=0:00:34.60    \nframe=  113 fps=3.2 q=31.0 size=       1KiB time=00:00:01.88 bitrate=   2.7kbits/s speed=0.0535x elapsed=0:00:35.17    \nframe=  115 fps=3.2 q=31.0 size=       1KiB time=00:00:01.91 bitrate=   2.6kbits/s speed=0.0536x elapsed=0:00:35.74    \nframe=  116 fps=3.2 q=31.0 size=       1KiB time=00:00:01.93 bitrate=   2.6kbits/s speed=0.0532x elapsed=0:00:36.35    \nframe=  118 fps=3.2 q=31.0 size=       1KiB time=00:00:01.96 bitrate=   2.6kbits/s speed=0.0533x elapsed=0:00:36.88    \nframe=  120 fps=3.2 q=31.0 size=       1KiB time=00:00:02.00 bitrate=   2.5kbits/s speed=0.0534x elapsed=0:00:37.43    \nframe=  121 fps=3.2 q=31.0 size=       1KiB time=00:00:02.01 bitrate=   2.5kbits/s speed=0.0531x elapsed=0:00:38.00    \nframe=  123 fps=3.2 q=31.0 size=       1KiB time=00:00:02.05 bitrate=   2.5kbits/s speed=0.0532x elapsed=0:00:38.53    \nframe=  125 fps=3.2 q=31.0 size=       1KiB time=00:00:02.08 bitrate=   2.4kbits/s speed=0.0533x elapsed=0:00:39.07    \nframe=  127 fps=3.2 q=32.0 size=       1KiB time=00:00:02.11 bitrate=   2.4kbits/s speed=0.0534x elapsed=0:00:39.62    \nframe=  129 fps=3.2 q=22.0 size=       1KiB time=00:00:02.15 bitrate=   2.4kbits/s speed=0.0535x elapsed=0:00:40.22    \nframe=  131 fps=3.2 q=30.0 size=    2816KiB time=00:00:02.18 bitrate=10565.8kbits/s speed=0.0535x elapsed=0:00:40.82    \nframe=  133 fps=3.2 q=31.0 size=    2816KiB time=00:00:02.21 bitrate=10406.9kbits/s speed=0.0536x elapsed=0:00:41.36    \nframe=  134 fps=3.2 q=32.0 size=    2816KiB time=00:00:02.23 bitrate=10329.3kbits/s speed=0.0533x elapsed=0:00:41.91    \nframe=  136 fps=3.2 q=32.0 size=    2816KiB time=00:00:02.26 bitrate=10177.4kbits/s speed=0.0534x elapsed=0:00:42.45    \nframe=  138 fps=3.2 q=32.0 size=    2816KiB time=00:00:02.30 bitrate=10029.9kbits/s speed=0.0534x elapsed=0:00:43.03    \nframe=  140 fps=3.2 q=22.0 size=    2816KiB time=00:00:02.33 bitrate=9886.6kbits/s speed=0.0535x elapsed=0:00:43.59    \nframe=  142 fps=3.2 q=30.0 size=    2816KiB time=00:00:02.35 bitrate=9816.5kbits/s speed=0.0532x elapsed=0:00:44.16    \nframe=  143 fps=3.2 q=31.0 size=    2816KiB time=00:00:02.38 bitrate=9679.2kbits/s speed=0.0533x elapsed=0:00:44.71    \nframe=  145 fps=3.2 q=31.0 size=    2816KiB time=00:00:02.41 bitrate=9545.7kbits/s speed=0.0534x elapsed=0:00:45.23    \nframe=  146 fps=3.2 q=31.0 size=    2816KiB time=00:00:02.43 bitrate=9480.3kbits/s speed=0.0532x elapsed=0:00:45.77    \nframe=  148 fps=3.2 q=31.0 size=    2816KiB time=00:00:02.46 bitrate=9352.2kbits/s speed=0.0533x elapsed=0:00:46.31    \nframe=  150 fps=3.2 q=31.0 size=    2816KiB time=00:00:02.50 bitrate=9227.5kbits/s speed=0.0533x elapsed=0:00:46.88    \nframe=  151 fps=3.2 q=32.0 size=    2816KiB time=00:00:02.51 bitrate=9166.4kbits/s speed=0.0531x elapsed=0:00:47.42    \nframe=  153 fps=3.2 q=31.0 size=    2816KiB time=00:00:02.55 bitrate=9046.5kbits/s speed=0.0532x elapsed=0:00:47.97    \nframe=  155 fps=3.2 q=31.0 size=    2816KiB time=00:00:02.58 bitrate=8929.8kbits/s speed=0.0532x elapsed=0:00:48.59    \nframe=  156 fps=3.2 q=31.0 size=    2816KiB time=00:00:02.60 bitrate=8872.6kbits/s speed=0.0529x elapsed=0:00:49.18    \nframe=  158 fps=3.2 q=31.0 size=    2816KiB time=00:00:02.63 bitrate=8760.3kbits/s speed=0.053x elapsed=0:00:49.72    \nframe=  160 fps=3.2 q=31.0 size=    2816KiB time=00:00:02.66 bitrate=8650.8kbits/s speed=0.053x elapsed=0:00:50.26    \nframe=  161 fps=3.2 q=31.0 size=    2816KiB time=00:00:02.68 bitrate=8597.0kbits/s speed=0.0528x elapsed=0:00:50.81    \nframe=  163 fps=3.2 q=31.0 size=    2816KiB time=00:00:02.71 bitrate=8491.5kbits/s speed=0.0529x elapsed=0:00:51.33    \nframe=  165 fps=3.2 q=31.0 size=    2816KiB time=00:00:02.75 bitrate=8388.6kbits/s speed=0.053x elapsed=0:00:51.87    \nframe=  168 fps=3.2 q=31.0 size=    2816KiB time=00:00:02.80 bitrate=8238.8kbits/s speed=0.0534x elapsed=0:00:52.44    \nframe=  170 fps=3.2 q=31.0 size=    2816KiB time=00:00:02.83 bitrate=8141.9kbits/s speed=0.0535x elapsed=0:00:52.99    \nframe=  172 fps=3.2 q=32.0 size=    2816KiB time=00:00:02.86 bitrate=8047.2kbits/s speed=0.0535x elapsed=0:00:53.57    \nframe=  174 fps=3.2 q=31.0 size=    2816KiB time=00:00:02.90 bitrate=7954.7kbits/s speed=0.0535x elapsed=0:00:54.18    \nframe=  176 fps=3.2 q=23.0 size=    2816KiB time=00:00:02.93 bitrate=7864.3kbits/s speed=0.0536x elapsed=0:00:54.77    \nframe=  177 fps=3.2 q=31.0 size=    2816KiB time=00:00:02.95 bitrate=7819.9kbits/s speed=0.0532x elapsed=0:00:55.40    \nframe=  179 fps=3.2 q=31.0 size=    2816KiB time=00:00:02.98 bitrate=7732.5kbits/s speed=0.0533x elapsed=0:00:55.98    \nframe=  180 fps=3.2 q=30.0 size=    2816KiB time=00:00:03.00 bitrate=7689.6kbits/s speed=0.053x elapsed=0:00:56.63    \nframe=  181 fps=3.2 q=31.0 size=    2816KiB time=00:00:03.01 bitrate=7647.1kbits/s speed=0.0527x elapsed=0:00:57.28    \nframe=  183 fps=3.2 q=30.0 size=    2816KiB time=00:00:03.05 bitrate=7563.5kbits/s speed=0.0527x elapsed=0:00:57.83    \nframe=  184 fps=3.1 q=32.0 size=    2816KiB time=00:00:03.06 bitrate=7522.4kbits/s speed=0.0524x elapsed=0:00:58.50    \nframe=  186 fps=3.1 q=31.0 size=    2816KiB time=00:00:03.10 bitrate=7441.5kbits/s speed=0.0524x elapsed=0:00:59.12    \nframe=  187 fps=3.1 q=31.0 size=    2816KiB time=00:00:03.11 bitrate=7401.7kbits/s speed=0.0522x elapsed=0:00:59.73    \nframe=  189 fps=3.1 q=31.0 size=    2816KiB time=00:00:03.15 bitrate=7323.4kbits/s speed=0.0522x elapsed=0:01:00.33    \nframe=  190 fps=3.1 q=31.0 size=    2816KiB time=00:00:03.16 bitrate=7284.8kbits/s speed=0.052x elapsed=0:01:00.92    \nframe=  193 fps=3.1 q=31.0 size=    2816KiB time=00:00:03.21 bitrate=7171.6kbits/s speed=0.0524x elapsed=0:01:01.43    \nframe=  195 fps=3.1 q=30.0 size=    2816KiB time=00:00:03.25 bitrate=7098.1kbits/s speed=0.0524x elapsed=0:01:02.00    \nframe=  197 fps=3.2 q=31.0 size=    2816KiB time=00:00:03.28 bitrate=7026.0kbits/s speed=0.0525x elapsed=0:01:02.53    \nframe=  199 fps=3.2 q=31.0 size=    2816KiB time=00:00:03.31 bitrate=6955.4kbits/s speed=0.0526x elapsed=0:01:03.10    \nframe=  201 fps=3.2 q=31.0 size=    2816KiB time=00:00:03.35 bitrate=6886.2kbits/s speed=0.0526x elapsed=0:01:03.64    \nframe=  204 fps=3.2 q=31.0 size=    2816KiB time=00:00:03.40 bitrate=6784.9kbits/s speed=0.053x elapsed=0:01:04.15    \nframe=  207 fps=3.2 q=30.0 size=    2816KiB time=00:00:03.45 bitrate=6686.6kbits/s speed=0.0533x elapsed=0:01:04.69    \nframe=  210 fps=3.2 q=31.0 size=    2816KiB time=00:00:03.50 bitrate=6591.0kbits/s speed=0.0536x elapsed=0:01:05.24    \nframe=  212 fps=3.2 q=23.0 size=    2816KiB time=00:00:03.53 bitrate=6528.9kbits/s speed=0.0537x elapsed=0:01:05.77    \nframe=  215 fps=3.2 q=31.0 size=    2816KiB time=00:00:03.58 bitrate=6437.8kbits/s speed=0.054x elapsed=0:01:06.30    \nframe=  218 fps=3.3 q=31.0 size=    2816KiB time=00:00:03.63 bitrate=6349.2kbits/s speed=0.0544x elapsed=0:01:06.84    \nframe=  220 fps=3.3 q=31.0 size=    2816KiB time=00:00:03.66 bitrate=6291.5kbits/s speed=0.0544x elapsed=0:01:07.37    \nframe=  223 fps=3.3 q=31.0 size=    2816KiB time=00:00:03.71 bitrate=6206.8kbits/s speed=0.0547x elapsed=0:01:07.89    \nframe=  226 fps=3.3 q=31.0 size=    2816KiB time=00:00:03.76 bitrate=6124.4kbits/s speed=0.055x elapsed=0:01:08.43    \nframe=  228 fps=3.3 q=31.0 size=    2816KiB time=00:00:03.80 bitrate=6070.7kbits/s speed=0.0551x elapsed=0:01:08.97    \nframe=  231 fps=3.3 q=30.0 size=    2816KiB time=00:00:03.85 bitrate=5991.9kbits/s speed=0.0554x elapsed=0:01:09.51    \nframe=  233 fps=3.3 q=31.0 size=    2816KiB time=00:00:03.88 bitrate=5940.4kbits/s speed=0.0554x elapsed=0:01:10.04    \nframe=  236 fps=3.3 q=22.0 size=    2816KiB time=00:00:03.93 bitrate=5864.9kbits/s speed=0.0557x elapsed=0:01:10.57    \nframe=  239 fps=3.4 q=31.0 size=    2816KiB time=00:00:03.98 bitrate=5791.3kbits/s speed=0.056x elapsed=0:01:11.10    \nframe=  242 fps=3.4 q=31.0 size=    2816KiB time=00:00:04.03 bitrate=5719.5kbits/s speed=0.0563x elapsed=0:01:11.65    \nframe=  244 fps=3.4 q=32.0 size=    2816KiB time=00:00:04.06 bitrate=5672.6kbits/s speed=0.0563x elapsed=0:01:12.17    \nframe=  247 fps=3.4 q=31.0 size=    2816KiB time=00:00:04.11 bitrate=5603.7kbits/s speed=0.0566x elapsed=0:01:12.70    \nframe=  250 fps=3.4 q=31.0 size=    2816KiB time=00:00:04.16 bitrate=5536.5kbits/s speed=0.0569x elapsed=0:01:13.22    \nframe=  253 fps=3.4 q=30.0 size=    2816KiB time=00:00:04.21 bitrate=5470.8kbits/s speed=0.0572x elapsed=0:01:13.76    \nframe=  256 fps=3.4 q=31.0 size=    2816KiB time=00:00:04.26 bitrate=5406.7kbits/s speed=0.0574x elapsed=0:01:14.30    \nframe=  258 fps=3.4 q=30.0 size=    5376KiB time=00:00:04.30 bitrate=10241.9kbits/s speed=0.0575x elapsed=0:01:14.83    \nframe=  261 fps=3.5 q=30.0 size=    5376KiB time=00:00:04.35 bitrate=10124.2kbits/s speed=0.0577x elapsed=0:01:15.36    \nframe=  264 fps=3.5 q=31.0 size=    5376KiB time=00:00:04.40 bitrate=10009.1kbits/s speed=0.058x elapsed=0:01:15.88    \nframe=  267 fps=3.5 q=31.0 size=    5376KiB time=00:00:04.45 bitrate=9896.7kbits/s speed=0.0582x elapsed=0:01:16.40    \nframe=  270 fps=3.5 q=31.0 size=    5376KiB time=00:00:04.50 bitrate=9786.7kbits/s speed=0.0585x elapsed=0:01:16.95    \nframe=  273 fps=3.5 q=30.0 size=    5376KiB time=00:00:04.55 bitrate=9679.2kbits/s speed=0.0587x elapsed=0:01:17.49    \nframe=  275 fps=3.5 q=31.0 size=    5376KiB time=00:00:04.58 bitrate=9608.8kbits/s speed=0.0588x elapsed=0:01:18.01    \nframe=  276 fps=3.5 q=30.0 size=    5376KiB time=00:00:04.60 bitrate=9574.0kbits/s speed=0.0586x elapsed=0:01:18.53    \nframe=  276 fps=3.5 q=30.0 size=    5376KiB time=00:00:04.60 bitrate=9574.0kbits/s speed=0.0582x elapsed=0:01:19.07    \nframe=  276 fps=3.5 q=30.0 size=    5376KiB time=00:00:04.60 bitrate=9574.0kbits/s speed=0.0578x elapsed=0:01:19.59    \nframe=  276 fps=3.4 q=30.0 size=    5376KiB time=00:00:04.60 bitrate=9574.0kbits/s speed=0.0574x elapsed=0:01:20.12    \nframe=  276 fps=3.4 q=30.0 size=    5376KiB time=00:00:04.60 bitrate=9574.0kbits/s speed=0.057x elapsed=0:01:20.65    \nframe=  276 fps=3.4 q=30.0 size=    5376KiB time=00:00:04.60 bitrate=9574.0kbits/s speed=0.0567x elapsed=0:01:21.18    \nframe=  276 fps=3.4 q=30.0 size=    5376KiB time=00:00:04.60 bitrate=9574.0kbits/s speed=0.0563x elapsed=0:01:21.71    \nframe=  276 fps=3.4 q=30.0 size=    5376KiB time=00:00:04.60 bitrate=9574.0kbits/s speed=0.0559x elapsed=0:01:22.24    \n[out#0/webm @ 0000023fe74f9180] video:6594KiB audio:0KiB subtitle:0KiB other streams:0KiB global headers:0KiB muxing overhead: 0.042324%\nframe=  300 fps=3.6 q=30.0 Lsize=    6597KiB time=00:00:05.00 bitrate=10808.9kbits/s speed=0.0604x elapsed=0:01:22.73    \n",
  "seconds": 83.17182350158691,
  "probe_out": {}
}